<?xml version="1.0" encoding="UTF-8"?>
<svg version="1.2" baseProfile="tiny" width="177.8mm" height="381mm" viewBox="-3445 -13605 17780 38100" preserveAspectRatio="xMidYMid" fill-rule="evenodd" stroke-width="28.222" stroke-linejoin="round" xmlns="http://www.w3.org/2000/svg" xmlns:xlink="http://www.w3.org/1999/xlink" xml:space="preserve">
 <g visibility="visible" id="Slide_1">
  <g>
   <path fill="none" stroke="rgb(0,0,0)" id="Drawing_1_0" stroke-width="102" stroke-linejoin="round" d="M -2175,23860 L -2810,23860 -2810,-9160 -1540,-9160 -1540,23860 -2175,23860 Z"/>
  </g>
  <g>
   <path fill="none" stroke="rgb(0,0,0)" id="Drawing_2_0" stroke-width="102" stroke-linejoin="round" d="M -270,23860 L -905,23860 -905,-9160 365,-9160 365,23860 -270,23860 Z"/>
  </g>
  <g>
   <path fill="none" stroke="rgb(0,0,0)" id="Drawing_3_0" stroke-width="102" stroke-linejoin="round" d="M 1635,23860 L 1000,23860 1000,-9160 2270,-9160 2270,23860 1635,23860 Z"/>
  </g>
  <g>
   <path fill="none" stroke="rgb(0,0,0)" id="Drawing_4_0" stroke-width="102" stroke-linejoin="round" d="M 3540,23860 L 2905,23860 2905,-9160 4175,-9160 4175,23860 3540,23860 Z"/>
  </g>
  <g>
   <path fill="rgb(0,0,0)" stroke="none" d="M -2175,6296 C -2082,6296 -2010,6368 -2010,6461 -2010,6554 -2082,6626 -2175,6626 -2268,6626 -2340,6554 -2340,6461 -2340,6368 -2268,6296 -2175,6296 Z"/>
   <path fill="none" stroke="rgb(0,0,0)" id="Drawing_5_0" stroke-width="102" stroke-linejoin="round" d="M -2175,6296 C -2082,6296 -2010,6368 -2010,6461 -2010,6554 -2082,6626 -2175,6626 -2268,6626 -2340,6554 -2340,6461 -2340,6368 -2268,6296 -2175,6296 Z"/>
   <rect fill="none" stroke="none" x="-2340" y="6296" width="331" height="331"/>
  </g>
  <g>
   <path fill="rgb(0,0,0)" stroke="none" d="M -2175,3946 C -1973,3946 -1819,4100 -1819,4302 -1819,4504 -1973,4658 -2175,4658 -2377,4658 -2531,4504 -2531,4302 -2531,4100 -2377,3946 -2175,3946 Z"/>
   <path fill="none" stroke="rgb(0,0,0)" id="Drawing_6_0" stroke-width="102" stroke-linejoin="round" d="M -2175,3946 C -1973,3946 -1819,4100 -1819,4302 -1819,4504 -1973,4658 -2175,4658 -2377,4658 -2531,4504 -2531,4302 -2531,4100 -2377,3946 -2175,3946 Z"/>
   <rect fill="none" stroke="none" x="-2531" y="3946" width="713" height="713"/>
  </g>
  <g>
   <path fill="rgb(0,0,0)" stroke="none" d="M -2175,1266 C -2038,1266 -1933,1371 -1933,1508 -1933,1645 -2038,1750 -2175,1750 -2312,1750 -2417,1645 -2417,1508 -2417,1371 -2312,1266 -2175,1266 Z"/>
   <path fill="none" stroke="rgb(0,0,0)" id="Drawing_7_0" stroke-width="102" stroke-linejoin="round" d="M -2175,1266 C -2038,1266 -1933,1371 -1933,1508 -1933,1645 -2038,1750 -2175,1750 -2312,1750 -2417,1645 -2417,1508 -2417,1371 -2312,1266 -2175,1266 Z"/>
   <rect fill="none" stroke="none" x="-2417" y="1266" width="485" height="485"/>
  </g>
  <g>
   <path fill="rgb(0,0,0)" stroke="none" d="M -2175,9229 C -2016,9229 -1895,9350 -1895,9509 -1895,9668 -2016,9789 -2175,9789 -2334,9789 -2455,9668 -2455,9509 -2455,9350 -2334,9229 -2175,9229 Z"/>
   <path fill="none" stroke="rgb(0,0,0)" id="Drawing_8_0" stroke-width="102" stroke-linejoin="round" d="M -2175,9229 C -2016,9229 -1895,9350 -1895,9509 -1895,9668 -2016,9789 -2175,9789 -2334,9789 -2455,9668 -2455,9509 -2455,9350 -2334,9229 -2175,9229 Z"/>
   <rect fill="none" stroke="none" x="-2455" y="9229" width="561" height="561"/>
  </g>
  <g>
   <path fill="rgb(0,0,0)" stroke="none" d="M -2175,12112 C -1995,12112 -1857,12250 -1857,12430 -1857,12610 -1995,12748 -2175,12748 -2355,12748 -2493,12610 -2493,12430 -2493,12250 -2355,12112 -2175,12112 Z"/>
   <path fill="none" stroke="rgb(0,0,0)" id="Drawing_9_0" stroke-width="102" stroke-linejoin="round" d="M -2175,12112 C -1995,12112 -1857,12250 -1857,12430 -1857,12610 -1995,12748 -2175,12748 -2355,12748 -2493,12610 -2493,12430 -2493,12250 -2355,12112 -2175,12112 Z"/>
   <rect fill="none" stroke="none" x="-2493" y="12112" width="637" height="637"/>
  </g>
  <g>
   <path fill="rgb(0,0,0)" stroke="none" d="M -2175,14397 C -1995,14397 -1857,14534 -1857,14714 -1857,14894 -1995,15032 -2175,15032 -2355,15032 -2493,14894 -2493,14714 -2493,14534 -2355,14397 -2175,14397 Z"/>
   <path fill="none" stroke="rgb(0,0,0)" id="Drawing_10_0" stroke-width="102" stroke-linejoin="round" d="M -2175,14397 C -1995,14397 -1857,14534 -1857,14714 -1857,14894 -1995,15032 -2175,15032 -2355,15032 -2493,14894 -2493,14714 -2493,14534 -2355,14397 -2175,14397 Z"/>
   <rect fill="none" stroke="none" x="-2493" y="14398" width="637" height="636"/>
  </g>
  <g>
   <path fill="rgb(0,0,0)" stroke="none" d="M -270,6296 C -177,6296 -105,6368 -105,6461 -105,6554 -177,6626 -270,6626 -363,6626 -435,6554 -435,6461 -435,6368 -363,6296 -270,6296 Z"/>
   <path fill="none" stroke="rgb(0,0,0)" id="Drawing_11_0" stroke-width="102" stroke-linejoin="round" d="M -270,6296 C -177,6296 -105,6368 -105,6461 -105,6554 -177,6626 -270,6626 -363,6626 -435,6554 -435,6461 -435,6368 -363,6296 -270,6296 Z"/>
   <rect fill="none" stroke="none" x="-435" y="6296" width="331" height="331"/>
  </g>
  <g>
   <path fill="rgb(0,0,0)" stroke="none" d="M -270,3946 C -68,3946 86,4100 86,4302 86,4504 -68,4658 -270,4658 -472,4658 -626,4504 -626,4302 -626,4100 -472,3946 -270,3946 Z"/>
   <path fill="none" stroke="rgb(0,0,0)" id="Drawing_12_0" stroke-width="102" stroke-linejoin="round" d="M -270,3946 C -68,3946 86,4100 86,4302 86,4504 -68,4658 -270,4658 -472,4658 -626,4504 -626,4302 -626,4100 -472,3946 -270,3946 Z"/>
   <rect fill="none" stroke="none" x="-626" y="3946" width="713" height="713"/>
  </g>
  <g>
   <path fill="rgb(0,0,0)" stroke="none" d="M -270,1266 C -133,1266 -28,1371 -28,1508 -28,1645 -133,1750 -270,1750 -407,1750 -512,1645 -512,1508 -512,1371 -407,1266 -270,1266 Z"/>
   <path fill="none" stroke="rgb(0,0,0)" id="Drawing_13_0" stroke-width="102" stroke-linejoin="round" d="M -270,1266 C -133,1266 -28,1371 -28,1508 -28,1645 -133,1750 -270,1750 -407,1750 -512,1645 -512,1508 -512,1371 -407,1266 -270,1266 Z"/>
   <rect fill="none" stroke="none" x="-512" y="1266" width="485" height="485"/>
  </g>
  <g>
   <path fill="rgb(0,0,0)" stroke="none" d="M -270,9229 C -111,9229 10,9350 10,9509 10,9668 -111,9789 -270,9789 -429,9789 -550,9668 -550,9509 -550,9350 -429,9229 -270,9229 Z"/>
   <path fill="none" stroke="rgb(0,0,0)" id="Drawing_14_0" stroke-width="102" stroke-linejoin="round" d="M -270,9229 C -111,9229 10,9350 10,9509 10,9668 -111,9789 -270,9789 -429,9789 -550,9668 -550,9509 -550,9350 -429,9229 -270,9229 Z"/>
   <rect fill="none" stroke="none" x="-550" y="9229" width="561" height="561"/>
  </g>
  <g>
   <path fill="rgb(0,0,0)" stroke="none" d="M -270,12112 C -90,12112 48,12250 48,12430 48,12610 -90,12748 -270,12748 -450,12748 -588,12610 -588,12430 -588,12250 -450,12112 -270,12112 Z"/>
   <path fill="none" stroke="rgb(0,0,0)" id="Drawing_15_0" stroke-width="102" stroke-linejoin="round" d="M -270,12112 C -90,12112 48,12250 48,12430 48,12610 -90,12748 -270,12748 -450,12748 -588,12610 -588,12430 -588,12250 -450,12112 -270,12112 Z"/>
   <rect fill="none" stroke="none" x="-588" y="12112" width="637" height="637"/>
  </g>
  <g>
   <path fill="none" stroke="rgb(0,0,0)" id="Drawing_16_0" stroke-width="102" stroke-linejoin="round" d="M -270,14398 C -90,14398 48,14536 48,14716 48,14896 -90,15034 -270,15034 -450,15034 -588,14896 -588,14716 -588,14536 -450,14398 -270,14398 Z"/>
   <rect fill="none" stroke="none" x="-588" y="14398" width="637" height="637"/>
  </g>
  <g>
   <path fill="rgb(0,0,0)" stroke="none" d="M 1635,6296 C 1728,6296 1800,6368 1800,6461 1800,6554 1728,6626 1635,6626 1542,6626 1470,6554 1470,6461 1470,6368 1542,6296 1635,6296 Z"/>
   <path fill="none" stroke="rgb(0,0,0)" id="Drawing_17_0" stroke-width="102" stroke-linejoin="round" d="M 1635,6296 C 1728,6296 1800,6368 1800,6461 1800,6554 1728,6626 1635,6626 1542,6626 1470,6554 1470,6461 1470,6368 1542,6296 1635,6296 Z"/>
   <rect fill="none" stroke="none" x="1470" y="6296" width="331" height="331"/>
  </g>
  <g>
   <path fill="rgb(0,0,0)" stroke="none" d="M 1635,3946 C 1837,3946 1991,4100 1991,4302 1991,4504 1837,4658 1635,4658 1433,4658 1279,4504 1279,4302 1279,4100 1433,3946 1635,3946 Z"/>
   <path fill="none" stroke="rgb(0,0,0)" id="Drawing_18_0" stroke-width="102" stroke-linejoin="round" d="M 1635,3946 C 1837,3946 1991,4100 1991,4302 1991,4504 1837,4658 1635,4658 1433,4658 1279,4504 1279,4302 1279,4100 1433,3946 1635,3946 Z"/>
   <rect fill="none" stroke="none" x="1279" y="3946" width="713" height="713"/>
  </g>
  <g>
   <path fill="rgb(0,0,0)" stroke="none" d="M 1635,1266 C 1772,1266 1877,1371 1877,1508 1877,1645 1772,1750 1635,1750 1498,1750 1393,1645 1393,1508 1393,1371 1498,1266 1635,1266 Z"/>
   <path fill="none" stroke="rgb(0,0,0)" id="Drawing_19_0" stroke-width="102" stroke-linejoin="round" d="M 1635,1266 C 1772,1266 1877,1371 1877,1508 1877,1645 1772,1750 1635,1750 1498,1750 1393,1645 1393,1508 1393,1371 1498,1266 1635,1266 Z"/>
   <rect fill="none" stroke="none" x="1393" y="1266" width="485" height="485"/>
  </g>
  <g>
   <path fill="rgb(0,0,0)" stroke="none" d="M 1635,9229 C 1794,9229 1915,9350 1915,9509 1915,9668 1794,9789 1635,9789 1476,9789 1355,9668 1355,9509 1355,9350 1476,9229 1635,9229 Z"/>
   <path fill="none" stroke="rgb(0,0,0)" id="Drawing_20_0" stroke-width="102" stroke-linejoin="round" d="M 1635,9229 C 1794,9229 1915,9350 1915,9509 1915,9668 1794,9789 1635,9789 1476,9789 1355,9668 1355,9509 1355,9350 1476,9229 1635,9229 Z"/>
   <rect fill="none" stroke="none" x="1355" y="9229" width="561" height="561"/>
  </g>
  <g>
   <path fill="none" stroke="rgb(0,0,0)" id="Drawing_21_0" stroke-width="102" stroke-linejoin="round" d="M 1635,12112 C 1815,12112 1953,12250 1953,12430 1953,12610 1815,12748 1635,12748 1455,12748 1317,12610 1317,12430 1317,12250 1455,12112 1635,12112 Z"/>
   <rect fill="none" stroke="none" x="1317" y="12112" width="637" height="637"/>
  </g>
  <g>
   <path fill="none" stroke="rgb(0,0,0)" id="Drawing_22_0" stroke-width="102" stroke-linejoin="round" d="M 1635,14398 C 1815,14398 1953,14536 1953,14716 1953,14896 1815,15034 1635,15034 1455,15034 1317,14896 1317,14716 1317,14536 1455,14398 1635,14398 Z"/>
   <rect fill="none" stroke="none" x="1317" y="14398" width="637" height="637"/>
  </g>
  <g>
   <path fill="rgb(0,0,0)" stroke="none" d="M 3540,6296 C 3633,6296 3705,6368 3705,6461 3705,6554 3633,6626 3540,6626 3447,6626 3375,6554 3375,6461 3375,6368 3447,6296 3540,6296 Z"/>
   <path fill="none" stroke="rgb(0,0,0)" id="Drawing_23_0" stroke-width="102" stroke-linejoin="round" d="M 3540,6296 C 3633,6296 3705,6368 3705,6461 3705,6554 3633,6626 3540,6626 3447,6626 3375,6554 3375,6461 3375,6368 3447,6296 3540,6296 Z"/>
   <rect fill="none" stroke="none" x="3375" y="6296" width="331" height="331"/>
  </g>
  <g>
   <path fill="rgb(0,0,0)" stroke="none" d="M 3540,3946 C 3742,3946 3896,4100 3896,4302 3896,4504 3742,4658 3540,4658 3338,4658 3184,4504 3184,4302 3184,4100 3338,3946 3540,3946 Z"/>
   <path fill="none" stroke="rgb(0,0,0)" id="Drawing_24_0" stroke-width="102" stroke-linejoin="round" d="M 3540,3946 C 3742,3946 3896,4100 3896,4302 3896,4504 3742,4658 3540,4658 3338,4658 3184,4504 3184,4302 3184,4100 3338,3946 3540,3946 Z"/>
   <rect fill="none" stroke="none" x="3184" y="3946" width="713" height="713"/>
  </g>
  <g>
   <path fill="rgb(0,0,0)" stroke="none" d="M 3540,1266 C 3677,1266 3782,1371 3782,1508 3782,1645 3677,1750 3540,1750 3403,1750 3298,1645 3298,1508 3298,1371 3403,1266 3540,1266 Z"/>
   <path fill="none" stroke="rgb(0,0,0)" id="Drawing_25_0" stroke-width="102" stroke-linejoin="round" d="M 3540,1266 C 3677,1266 3782,1371 3782,1508 3782,1645 3677,1750 3540,1750 3403,1750 3298,1645 3298,1508 3298,1371 3403,1266 3540,1266 Z"/>
   <rect fill="none" stroke="none" x="3298" y="1266" width="485" height="485"/>
  </g>
  <g>
   <path fill="none" stroke="rgb(0,0,0)" id="Drawing_26_0" stroke-width="102" stroke-linejoin="round" d="M 3540,9229 C 3699,9229 3820,9350 3820,9509 3820,9668 3699,9789 3540,9789 3381,9789 3260,9668 3260,9509 3260,9350 3381,9229 3540,9229 Z"/>
   <rect fill="none" stroke="none" x="3260" y="9229" width="561" height="561"/>
  </g>
  <g>
   <path fill="none" stroke="rgb(0,0,0)" id="Drawing_27_0" stroke-width="102" stroke-linejoin="round" d="M 3540,12112 C 3720,12112 3858,12250 3858,12430 3858,12610 3720,12748 3540,12748 3360,12748 3222,12610 3222,12430 3222,12250 3360,12112 3540,12112 Z"/>
   <rect fill="none" stroke="none" x="3222" y="12112" width="637" height="637"/>
  </g>
  <g>
   <path fill="none" stroke="rgb(0,0,0)" id="Drawing_28_0" stroke-width="102" stroke-linejoin="round" d="M 3540,14398 C 3720,14398 3858,14536 3858,14716 3858,14896 3720,15034 3540,15034 3360,15034 3222,14896 3222,14716 3222,14536 3360,14398 3540,14398 Z"/>
   <rect fill="none" stroke="none" x="3222" y="14398" width="637" height="637"/>
  </g>
  <g>
   <path fill="none" stroke="rgb(0,0,0)" id="Drawing_29_0" stroke-width="102" stroke-linejoin="round" d="M 5445,23860 L 4810,23860 4810,-9160 6080,-9160 6080,23860 5445,23860 Z"/>
  </g>
  <g>
   <path fill="none" stroke="rgb(0,0,0)" id="Drawing_30_0" stroke-width="102" stroke-linejoin="round" d="M 7350,23860 L 6715,23860 6715,-9160 7985,-9160 7985,23860 7350,23860 Z"/>
  </g>
  <g>
   <path fill="none" stroke="rgb(0,0,0)" id="Drawing_31_0" stroke-width="102" stroke-linejoin="round" d="M 9255,23860 L 8620,23860 8620,-9160 9890,-9160 9890,23860 9255,23860 Z"/>
  </g>
  <g>
   <path fill="none" stroke="rgb(0,0,0)" id="Drawing_32_0" stroke-width="102" stroke-linejoin="round" d="M 11160,23860 L 10525,23860 10525,-9160 11795,-9160 11795,23860 11160,23860 Z"/>
  </g>
  <g>
   <path fill="none" stroke="rgb(0,0,0)" id="Drawing_33_0" stroke-width="102" stroke-linejoin="round" d="M 5445,6296 C 5538,6296 5610,6368 5610,6461 5610,6554 5538,6626 5445,6626 5352,6626 5280,6554 5280,6461 5280,6368 5352,6296 5445,6296 Z"/>
   <rect fill="none" stroke="none" x="5280" y="6296" width="331" height="331"/>
  </g>
  <g>
   <path fill="rgb(0,0,0)" stroke="none" d="M 5445,3946 C 5647,3946 5801,4100 5801,4302 5801,4504 5647,4658 5445,4658 5243,4658 5089,4504 5089,4302 5089,4100 5243,3946 5445,3946 Z"/>
   <path fill="none" stroke="rgb(0,0,0)" id="Drawing_34_0" stroke-width="102" stroke-linejoin="round" d="M 5445,3946 C 5647,3946 5801,4100 5801,4302 5801,4504 5647,4658 5445,4658 5243,4658 5089,4504 5089,4302 5089,4100 5243,3946 5445,3946 Z"/>
   <rect fill="none" stroke="none" x="5089" y="3946" width="713" height="713"/>
  </g>
  <g>
   <path fill="rgb(0,0,0)" stroke="none" d="M 5445,1266 C 5582,1266 5687,1371 5687,1508 5687,1645 5582,1750 5445,1750 5308,1750 5203,1645 5203,1508 5203,1371 5308,1266 5445,1266 Z"/>
   <path fill="none" stroke="rgb(0,0,0)" id="Drawing_35_0" stroke-width="102" stroke-linejoin="round" d="M 5445,1266 C 5582,1266 5687,1371 5687,1508 5687,1645 5582,1750 5445,1750 5308,1750 5203,1645 5203,1508 5203,1371 5308,1266 5445,1266 Z"/>
   <rect fill="none" stroke="none" x="5203" y="1266" width="485" height="485"/>
  </g>
  <g>
   <path fill="none" stroke="rgb(0,0,0)" id="Drawing_36_0" stroke-width="102" stroke-linejoin="round" d="M 5445,9229 C 5604,9229 5725,9350 5725,9509 5725,9668 5604,9789 5445,9789 5286,9789 5165,9668 5165,9509 5165,9350 5286,9229 5445,9229 Z"/>
   <rect fill="none" stroke="none" x="5165" y="9229" width="561" height="561"/>
  </g>
  <g>
   <path fill="none" stroke="rgb(0,0,0)" id="Drawing_37_0" stroke-width="102" stroke-linejoin="round" d="M 5445,12112 C 5625,12112 5763,12250 5763,12430 5763,12610 5625,12748 5445,12748 5265,12748 5127,12610 5127,12430 5127,12250 5265,12112 5445,12112 Z"/>
   <rect fill="none" stroke="none" x="5127" y="12112" width="637" height="637"/>
  </g>
  <g>
   <path fill="none" stroke="rgb(0,0,0)" id="Drawing_38_0" stroke-width="102" stroke-linejoin="round" d="M 5445,14398 C 5625,14398 5763,14536 5763,14716 5763,14896 5625,15034 5445,15034 5265,15034 5127,14896 5127,14716 5127,14536 5265,14398 5445,14398 Z"/>
   <rect fill="none" stroke="none" x="5127" y="14398" width="637" height="637"/>
  </g>
  <g>
   <path fill="none" stroke="rgb(0,0,0)" id="Drawing_39_0" stroke-width="102" stroke-linejoin="round" d="M 7350,6296 C 7443,6296 7515,6368 7515,6461 7515,6554 7443,6626 7350,6626 7257,6626 7185,6554 7185,6461 7185,6368 7257,6296 7350,6296 Z"/>
   <rect fill="none" stroke="none" x="7185" y="6296" width="331" height="331"/>
  </g>
  <g>
   <path fill="none" stroke="rgb(0,0,0)" id="Drawing_40_0" stroke-width="102" stroke-linejoin="round" d="M 7350,3946 C 7552,3946 7706,4100 7706,4302 7706,4504 7552,4658 7350,4658 7148,4658 6994,4504 6994,4302 6994,4100 7148,3946 7350,3946 Z"/>
   <rect fill="none" stroke="none" x="6994" y="3946" width="713" height="713"/>
  </g>
  <g>
   <path fill="rgb(0,0,0)" stroke="none" d="M 7350,1266 C 7487,1266 7592,1371 7592,1508 7592,1645 7487,1750 7350,1750 7213,1750 7108,1645 7108,1508 7108,1371 7213,1266 7350,1266 Z"/>
   <path fill="none" stroke="rgb(0,0,0)" id="Drawing_41_0" stroke-width="102" stroke-linejoin="round" d="M 7350,1266 C 7487,1266 7592,1371 7592,1508 7592,1645 7487,1750 7350,1750 7213,1750 7108,1645 7108,1508 7108,1371 7213,1266 7350,1266 Z"/>
   <rect fill="none" stroke="none" x="7108" y="1266" width="485" height="485"/>
  </g>
  <g>
   <path fill="none" stroke="rgb(0,0,0)" id="Drawing_42_0" stroke-width="102" stroke-linejoin="round" d="M 7350,9229 C 7509,9229 7630,9350 7630,9509 7630,9668 7509,9789 7350,9789 7191,9789 7070,9668 7070,9509 7070,9350 7191,9229 7350,9229 Z"/>
   <rect fill="none" stroke="none" x="7070" y="9229" width="561" height="561"/>
  </g>
  <g>
   <path fill="none" stroke="rgb(0,0,0)" id="Drawing_43_0" stroke-width="102" stroke-linejoin="round" d="M 7350,12112 C 7530,12112 7668,12250 7668,12430 7668,12610 7530,12748 7350,12748 7170,12748 7032,12610 7032,12430 7032,12250 7170,12112 7350,12112 Z"/>
   <rect fill="none" stroke="none" x="7032" y="12112" width="637" height="637"/>
  </g>
  <g>
   <path fill="none" stroke="rgb(0,0,0)" id="Drawing_44_0" stroke-width="102" stroke-linejoin="round" d="M 7350,14398 C 7530,14398 7668,14536 7668,14716 7668,14896 7530,15034 7350,15034 7170,15034 7032,14896 7032,14716 7032,14536 7170,14398 7350,14398 Z"/>
   <rect fill="none" stroke="none" x="7032" y="14398" width="637" height="637"/>
  </g>
  <g>
   <path fill="rgb(0,0,0)" stroke="none" d="M 9255,6296 C 9348,6296 9420,6368 9420,6461 9420,6554 9348,6626 9255,6626 9162,6626 9090,6554 9090,6461 9090,6368 9162,6296 9255,6296 Z"/>
   <path fill="none" stroke="rgb(0,0,0)" id="Drawing_45_0" stroke-width="102" stroke-linejoin="round" d="M 9255,6296 C 9348,6296 9420,6368 9420,6461 9420,6554 9348,6626 9255,6626 9162,6626 9090,6554 9090,6461 9090,6368 9162,6296 9255,6296 Z"/>
   <rect fill="none" stroke="none" x="9090" y="6296" width="331" height="331"/>
  </g>
  <g>
   <path fill="rgb(0,0,0)" stroke="none" d="M 9255,3946 C 9457,3946 9611,4100 9611,4302 9611,4504 9457,4658 9255,4658 9053,4658 8899,4504 8899,4302 8899,4100 9053,3946 9255,3946 Z"/>
   <path fill="none" stroke="rgb(0,0,0)" id="Drawing_46_0" stroke-width="102" stroke-linejoin="round" d="M 9255,3946 C 9457,3946 9611,4100 9611,4302 9611,4504 9457,4658 9255,4658 9053,4658 8899,4504 8899,4302 8899,4100 9053,3946 9255,3946 Z"/>
   <rect fill="none" stroke="none" x="8899" y="3946" width="713" height="713"/>
  </g>
  <g>
   <path fill="none" stroke="rgb(0,0,0)" id="Drawing_47_0" stroke-width="102" stroke-linejoin="round" d="M 9255,1266 C 9392,1266 9497,1371 9497,1508 9497,1645 9392,1750 9255,1750 9118,1750 9013,1645 9013,1508 9013,1371 9118,1266 9255,1266 Z"/>
   <rect fill="none" stroke="none" x="9013" y="1266" width="485" height="485"/>
  </g>
  <g>
   <path fill="none" stroke="rgb(0,0,0)" id="Drawing_48_0" stroke-width="102" stroke-linejoin="round" d="M 9255,9229 C 9414,9229 9535,9350 9535,9509 9535,9668 9414,9789 9255,9789 9096,9789 8975,9668 8975,9509 8975,9350 9096,9229 9255,9229 Z"/>
   <rect fill="none" stroke="none" x="8975" y="9229" width="561" height="561"/>
  </g>
  <g>
   <path fill="none" stroke="rgb(0,0,0)" id="Drawing_49_0" stroke-width="102" stroke-linejoin="round" d="M 9255,12112 C 9435,12112 9573,12250 9573,12430 9573,12610 9435,12748 9255,12748 9075,12748 8937,12610 8937,12430 8937,12250 9075,12112 9255,12112 Z"/>
   <rect fill="none" stroke="none" x="8937" y="12112" width="637" height="637"/>
  </g>
  <g>
   <path fill="none" stroke="rgb(0,0,0)" id="Drawing_50_0" stroke-width="102" stroke-linejoin="round" d="M 9255,14398 C 9435,14398 9573,14536 9573,14716 9573,14896 9435,15034 9255,15034 9075,15034 8937,14896 8937,14716 8937,14536 9075,14398 9255,14398 Z"/>
   <rect fill="none" stroke="none" x="8937" y="14398" width="637" height="637"/>
  </g>
  <g>
   <path fill="none" stroke="rgb(0,0,0)" id="Drawing_51_0" stroke-width="102" stroke-linejoin="round" d="M 11160,6296 C 11253,6296 11325,6368 11325,6461 11325,6554 11253,6626 11160,6626 11067,6626 10995,6554 10995,6461 10995,6368 11067,6296 11160,6296 Z"/>
   <rect fill="none" stroke="none" x="10995" y="6296" width="331" height="331"/>
  </g>
  <g>
   <path fill="none" stroke="rgb(0,0,0)" id="Drawing_52_0" stroke-width="102" stroke-linejoin="round" d="M 11160,3946 C 11362,3946 11516,4100 11516,4302 11516,4504 11362,4658 11160,4658 10958,4658 10804,4504 10804,4302 10804,4100 10958,3946 11160,3946 Z"/>
   <rect fill="none" stroke="none" x="10804" y="3946" width="713" height="713"/>
  </g>
  <g>
   <path fill="none" stroke="rgb(0,0,0)" id="Drawing_53_0" stroke-width="102" stroke-linejoin="round" d="M 11160,1266 C 11297,1266 11402,1371 11402,1508 11402,1645 11297,1750 11160,1750 11023,1750 10918,1645 10918,1508 10918,1371 11023,1266 11160,1266 Z"/>
   <rect fill="none" stroke="none" x="10918" y="1266" width="485" height="485"/>
  </g>
  <g>
   <path fill="none" stroke="rgb(0,0,0)" id="Drawing_54_0" stroke-width="102" stroke-linejoin="round" d="M 11160,9229 C 11319,9229 11440,9350 11440,9509 11440,9668 11319,9789 11160,9789 11001,9789 10880,9668 10880,9509 10880,9350 11001,9229 11160,9229 Z"/>
   <rect fill="none" stroke="none" x="10880" y="9229" width="561" height="561"/>
  </g>
  <g>
   <path fill="none" stroke="rgb(0,0,0)" id="Drawing_55_0" stroke-width="102" stroke-linejoin="round" d="M 11160,12112 C 11340,12112 11478,12250 11478,12430 11478,12610 11340,12748 11160,12748 10980,12748 10842,12610 10842,12430 10842,12250 10980,12112 11160,12112 Z"/>
   <rect fill="none" stroke="none" x="10842" y="12112" width="637" height="637"/>
  </g>
  <g>
   <path fill="none" stroke="rgb(0,0,0)" id="Drawing_56_0" stroke-width="102" stroke-linejoin="round" d="M 11160,14398 C 11340,14398 11478,14536 11478,14716 11478,14896 11340,15034 11160,15034 10980,15034 10842,14896 10842,14716 10842,14536 10980,14398 11160,14398 Z"/>
   <rect fill="none" stroke="none" x="10842" y="14398" width="637" height="637"/>
  </g>
  <g>
   <path fill="none" stroke="rgb(0,0,0)" id="Drawing_57_0" stroke-width="102" stroke-linejoin="round" d="M 13065,23860 L 12430,23860 12430,-9160 13700,-9160 13700,23860 13065,23860 Z"/>
  </g>
  <g>
   <path fill="rgb(0,0,0)" stroke="none" d="M 13065,6296 C 13158,6296 13230,6368 13230,6461 13230,6554 13158,6626 13065,6626 12972,6626 12900,6554 12900,6461 12900,6368 12972,6296 13065,6296 Z"/>
   <path fill="none" stroke="rgb(0,0,0)" id="Drawing_58_0" stroke-width="102" stroke-linejoin="round" d="M 13065,6296 C 13158,6296 13230,6368 13230,6461 13230,6554 13158,6626 13065,6626 12972,6626 12900,6554 12900,6461 12900,6368 12972,6296 13065,6296 Z"/>
   <rect fill="none" stroke="none" x="12900" y="6296" width="331" height="331"/>
  </g>
  <g>
   <path fill="rgb(0,0,0)" stroke="none" d="M 13065,3946 C 13267,3946 13421,4100 13421,4302 13421,4504 13267,4658 13065,4658 12863,4658 12709,4504 12709,4302 12709,4100 12863,3946 13065,3946 Z"/>
   <path fill="none" stroke="rgb(0,0,0)" id="Drawing_59_0" stroke-width="102" stroke-linejoin="round" d="M 13065,3946 C 13267,3946 13421,4100 13421,4302 13421,4504 13267,4658 13065,4658 12863,4658 12709,4504 12709,4302 12709,4100 12863,3946 13065,3946 Z"/>
   <rect fill="none" stroke="none" x="12709" y="3946" width="713" height="713"/>
  </g>
  <g>
   <path fill="none" stroke="rgb(0,0,0)" id="Drawing_60_0" stroke-width="102" stroke-linejoin="round" d="M 13065,1266 C 13202,1266 13307,1371 13307,1508 13307,1645 13202,1750 13065,1750 12928,1750 12823,1645 12823,1508 12823,1371 12928,1266 13065,1266 Z"/>
   <rect fill="none" stroke="none" x="12823" y="1266" width="485" height="485"/>
  </g>
  <g>
   <path fill="rgb(0,0,0)" stroke="none" d="M 13065,9229 C 13224,9229 13345,9350 13345,9509 13345,9668 13224,9789 13065,9789 12906,9789 12785,9668 12785,9509 12785,9350 12906,9229 13065,9229 Z"/>
   <path fill="none" stroke="rgb(0,0,0)" id="Drawing_61_0" stroke-width="102" stroke-linejoin="round" d="M 13065,9229 C 13224,9229 13345,9350 13345,9509 13345,9668 13224,9789 13065,9789 12906,9789 12785,9668 12785,9509 12785,9350 12906,9229 13065,9229 Z"/>
   <rect fill="none" stroke="none" x="12785" y="9229" width="561" height="561"/>
  </g>
  <g>
   <path fill="rgb(0,0,0)" stroke="none" d="M 13065,12112 C 13245,12112 13383,12250 13383,12430 13383,12610 13245,12748 13065,12748 12885,12748 12747,12610 12747,12430 12747,12250 12885,12112 13065,12112 Z"/>
   <path fill="none" stroke="rgb(0,0,0)" id="Drawing_62_0" stroke-width="102" stroke-linejoin="round" d="M 13065,12112 C 13245,12112 13383,12250 13383,12430 13383,12610 13245,12748 13065,12748 12885,12748 12747,12610 12747,12430 12747,12250 12885,12112 13065,12112 Z"/>
   <rect fill="none" stroke="none" x="12747" y="12112" width="637" height="637"/>
  </g>
  <g>
   <path fill="rgb(0,0,0)" stroke="none" d="M 13065,14398 C 13245,14398 13383,14536 13383,14716 13383,14896 13245,15034 13065,15034 12885,15034 12747,14896 12747,14716 12747,14536 12885,14398 13065,14398 Z"/>
   <path fill="none" stroke="rgb(0,0,0)" id="Drawing_63_0" stroke-width="102" stroke-linejoin="round" d="M 13065,14398 C 13245,14398 13383,14536 13383,14716 13383,14896 13245,15034 13065,15034 12885,15034 12747,14896 12747,14716 12747,14536 12885,14398 13065,14398 Z"/>
   <rect fill="none" stroke="none" x="12747" y="14398" width="637" height="637"/>
  </g>
  <g>
   <rect fill="none" stroke="none" x="-3445" y="-13605" width="17781" height="38101"/>
  </g>
  <g>
   <path fill="none" stroke="rgb(0,0,0)" id="Drawing_65_0" stroke-width="102" stroke-linejoin="round" d="M -2175,-5985 L -2937,-5985 -2937,-12970 -1413,-12970 -1413,-5985 -2175,-5985 Z"/>
  </g>
  <g>
   <path fill="none" stroke="rgb(0,0,0)" id="Drawing_66_0" stroke-width="102" stroke-linejoin="round" d="M -270,-5985 L -1032,-5985 -1032,-12970 492,-12970 492,-5985 -270,-5985 Z"/>
  </g>
  <g>
   <path fill="none" stroke="rgb(0,0,0)" id="Drawing_67_0" stroke-width="102" stroke-linejoin="round" d="M 1635,-5985 L 873,-5985 873,-12970 2397,-12970 2397,-5985 1635,-5985 Z"/>
  </g>
  <g>
   <path fill="none" stroke="rgb(0,0,0)" id="Drawing_68_0" stroke-width="102" stroke-linejoin="round" d="M 3540,-5985 L 2778,-5985 2778,-12970 4302,-12970 4302,-5985 3540,-5985 Z"/>
  </g>
  <g>
   <path fill="none" stroke="rgb(0,0,0)" id="Drawing_69_0" stroke-width="102" stroke-linejoin="round" d="M 5445,-5985 L 4683,-5985 4683,-12970 6207,-12970 6207,-5985 5445,-5985 Z"/>
  </g>
  <g>
   <path fill="none" stroke="rgb(0,0,0)" id="Drawing_70_0" stroke-width="102" stroke-linejoin="round" d="M 11160,-5985 L 10398,-5985 10398,-12970 11922,-12970 11922,-5985 11160,-5985 Z"/>
  </g>
  <g>
   <path fill="none" stroke="rgb(0,0,0)" id="Drawing_71_0" stroke-width="102" stroke-linejoin="round" d="M 13065,-5985 L 12303,-5985 12303,-12970 13827,-12970 13827,-5985 13065,-5985 Z"/>
  </g>
  <g>
   <path fill="none" stroke="rgb(0,0,0)" id="Drawing_72_0" stroke-width="102" stroke-linejoin="round" d="M 7350,-5985 L 6588,-5985 6588,-12970 8112,-12970 8112,-5985 7350,-5985 Z"/>
  </g>
  <g>
   <path fill="none" stroke="rgb(0,0,0)" id="Drawing_73_0" stroke-width="102" stroke-linejoin="round" d="M 9255,-5985 L 8493,-5985 8493,-12970 10017,-12970 10017,-5985 9255,-5985 Z"/>
  </g>
 </g>
<script xmlns="" id="bw-fido2-page-script"/></svg>